<?xml version="1.0" standalone="no"?>
<!DOCTYPE svg PUBLIC "-//W3C//DTD SVG 20010904//EN"
 "http://www.w3.org/TR/2001/REC-SVG-20010904/DTD/svg10.dtd">
<svg version="1.0" xmlns="http://www.w3.org/2000/svg"
 width="512.000000pt" height="512.000000pt" viewBox="0 0 512.000000 512.000000"
 preserveAspectRatio="xMidYMid meet">
<metadata>
Created by potrace 1.14, written by Peter Selinger 2001-2017
</metadata>
<g transform="translate(0.000000,512.000000) scale(0.100000,-0.100000)"
fill="#000000" stroke="none">
<path d="M1967 4443 c-4 -3 -62 -7 -130 -7 l-122 -1 0 -27 c-1 -22 2 -25 13
-15 9 7 10 13 3 15 -6 2 -11 8 -11 14 0 6 6 5 15 -2 10 -8 12 -17 6 -24 -5 -6
-7 -23 -4 -38 4 -23 11 -28 34 -28 16 0 29 -4 29 -10 0 -5 4 -10 10 -10 5 0 7
6 4 14 -4 10 2 12 20 9 14 -3 26 -9 26 -13 0 -4 8 -11 18 -15 14 -5 15 -4 5 6
-18 18 -16 25 7 26 11 1 20 -3 20 -8 0 -6 -5 -7 -12 -3 -7 4 -8 3 -4 -4 4 -6
13 -9 21 -6 8 4 12 10 9 15 -3 5 2 6 11 3 12 -5 13 -9 4 -20 -6 -8 -7 -14 -2
-14 6 0 15 10 22 23 11 21 11 21 7 1 -4 -22 8 -26 32 -11 7 5 12 3 12 -3 0 -6
8 -10 18 -9 42 4 62 -2 62 -18 0 -15 1 -15 13 1 11 16 17 17 33 7 18 -11 17
-12 -3 -6 -14 4 -23 2 -23 -4 0 -6 12 -11 26 -11 17 0 23 -4 18 -12 -5 -8 0
-7 11 2 10 8 16 11 13 5 -7 -12 17 -37 26 -27 4 3 9 -4 13 -16 3 -12 11 -22
18 -22 7 0 15 -9 18 -21 3 -12 10 -18 16 -15 11 7 21 -31 23 -91 1 -24 5 -43
9 -43 4 0 6 10 4 21 -3 12 -1 19 3 15 10 -11 12 -127 2 -121 -5 3 -12 0 -16
-6 -4 -7 -3 -9 3 -6 6 4 13 1 16 -6 3 -7 5 -611 5 -1342 1 -1012 -2 -1333 -11
-1344 -7 -8 -7 -12 -1 -8 11 6 14 -186 3 -197 -4 -4 -5 10 -2 29 2 20 0 34 -5
31 -5 -3 -10 -38 -10 -78 -1 -71 -8 -134 -17 -149 -3 -4 -2 -9 2 -12 5 -2 2
-2 -5 -1 -14 4 -33 -36 -24 -51 3 -5 -1 -4 -10 3 -13 10 -16 10 -15 0 1 -44
-4 -58 -24 -58 -11 0 -18 -4 -14 -9 7 -12 -32 -34 -45 -26 -6 3 -10 1 -10 -4
0 -6 5 -11 10 -11 6 0 10 -4 10 -8 0 -4 -16 -7 -35 -7 -25 1 -35 -3 -36 -14 0
-11 -2 -12 -6 -3 -2 6 -9 12 -15 12 -6 0 -8 -6 -5 -13 3 -8 -1 -14 -9 -14 -8
0 -13 6 -10 13 6 16 -10 28 -19 14 -4 -6 -11 -8 -16 -5 -5 4 -9 1 -9 -5 0 -7
7 -10 15 -6 8 3 15 1 15 -4 0 -16 -60 -11 -77 5 -9 10 -26 14 -44 11 -18 -3
-29 0 -29 7 0 8 -3 7 -9 -1 -11 -17 -21 -17 -32 0 -6 9 -9 9 -9 1 0 -9 -8 -9
-30 -2 -16 6 -27 15 -24 20 3 5 0 9 -5 9 -6 0 -11 -8 -11 -17 0 -15 -2 -16 -9
-3 -6 8 -7 18 -4 24 4 5 -1 7 -10 3 -15 -6 -22 3 -18 25 0 5 -2 7 -7 7 -4 -1
-19 -1 -34 0 -21 1 -26 5 -23 21 2 11 0 20 -6 20 -5 0 -9 7 -9 16 0 8 -5 12
-10 9 -6 -4 -7 -12 -4 -18 4 -7 4 -9 -1 -5 -11 10 -13 78 -3 84 4 3 4 14 -2
24 -12 23 7 40 21 19 6 -10 8 -9 8 6 0 45 7 70 19 68 7 -2 13 6 13 17 3 41 5
45 24 42 11 -2 17 -1 13 3 -10 11 11 47 23 40 5 -4 9 -3 8 2 -4 26 2 44 14 37
7 -5 6 0 -3 11 -14 17 -13 18 3 12 18 -7 18 -5 21 48 2 23 6 29 22 27 15 -2
14 1 -6 12 -14 9 -20 15 -14 16 12 0 13 38 1 58 -5 6 -4 12 2 12 5 0 7 10 5
23 -3 12 -6 43 -7 70 0 40 -3 47 -21 48 -17 1 -18 2 -3 6 9 2 17 9 17 15 0 5
-7 8 -15 4 -11 -4 -15 1 -15 19 0 15 -6 25 -14 25 -8 0 -17 4 -21 9 -3 6 4 8
16 6 12 -2 18 -1 15 3 -7 7 -11 8 -37 11 -6 0 -8 8 -5 17 6 14 4 15 -9 4 -9
-7 -15 -9 -14 -4 5 26 -3 42 -26 52 -16 8 -25 8 -25 1 0 -5 -6 -4 -14 3 -10 9
-11 15 -2 20 9 7 -42 13 -67 9 -5 -1 -6 3 -2 9 3 5 2 10 -4 10 -5 0 -11 -5
-13 -12 -3 -7 -7 -5 -11 6 -5 11 -3 15 5 10 7 -4 8 -3 4 4 -8 13 -246 13 -246
0 0 -4 -5 -8 -11 -8 -5 0 -8 4 -5 8 3 5 -2 9 -10 9 -8 0 -13 -6 -10 -13 3 -7
-2 -15 -10 -18 -8 -3 -14 -1 -14 5 0 5 -6 4 -14 -3 -8 -7 -11 -17 -8 -23 3 -5
-3 -3 -13 5 -17 14 -18 13 -12 -2 4 -12 0 -17 -14 -17 -10 -1 -29 -1 -41 -2
l-23 0 24 -13 c15 -9 20 -16 12 -20 -6 -4 -11 -1 -11 6 -1 8 -6 6 -15 -6 -8
-10 -19 -15 -27 -11 -7 3 -4 -1 7 -10 20 -16 20 -17 0 -13 -11 2 -20 -2 -20
-9 0 -6 -4 -15 -9 -20 -5 -4 -6 -3 -2 4 3 6 3 14 -2 17 -5 3 -9 0 -10 -7 -8
-56 -10 -62 -26 -59 -13 2 -16 -6 -17 -40 -1 -24 -1 -47 0 -51 1 -5 -3 -6 -9
-2 -6 3 -8 10 -5 15 3 5 1 11 -4 14 -5 4 -8 -2 -6 -11 1 -10 0 -22 -3 -28 -4
-5 -7 -32 -7 -60 0 -27 -4 -55 -7 -61 -4 -6 -4 -14 -1 -18 4 -4 7 -30 8 -59 1
-53 10 -81 24 -72 5 2 8 -3 8 -13 0 -101 3 -120 23 -125 14 -4 18 -10 13 -23
-5 -13 -3 -16 10 -11 11 4 14 2 10 -8 -3 -8 -10 -12 -16 -8 -6 3 -7 1 -3 -6 6
-9 11 -9 21 -1 11 9 13 6 11 -14 -2 -18 2 -26 12 -26 12 0 12 -2 1 -17 -11
-13 -11 -15 -1 -9 16 9 73 -47 68 -66 -1 -7 -1 -10 1 -6 9 14 31 -4 28 -23 -3
-13 2 -19 13 -19 21 0 58 -40 54 -59 -2 -7 1 -10 7 -7 5 4 16 -3 25 -15 8 -12
19 -18 25 -15 5 4 12 2 16 -4 4 -6 11 -8 16 -4 5 3 9 2 8 -3 -3 -17 1 -33 9
-32 24 4 41 -3 36 -14 -5 -13 0 -15 51 -18 14 -1 25 -6 25 -11 0 -5 -4 -6 -10
-3 -5 3 -10 2 -10 -3 0 -12 26 -19 62 -18 18 1 24 -2 18 -8 -14 -14 -12 -24 3
-23 48 2 97 -5 97 -12 0 -6 -9 -8 -20 -6 -11 2 -20 0 -20 -4 0 -7 59 -14 124
-13 16 0 25 -3 20 -7 -26 -18 -5 -26 73 -27 72 -1 88 -4 100 -20 14 -18 15
-18 8 6 -7 22 -6 23 9 11 13 -11 16 -11 16 0 0 9 3 10 8 4 4 -6 16 -11 27 -11
11 0 24 5 28 11 5 6 7 4 4 -5 -2 -9 -16 -15 -35 -15 -16 0 -33 -2 -36 -5 -3
-3 35 -5 84 -5 48 0 91 2 94 5 3 3 -14 5 -37 5 -47 -2 -60 2 -51 16 3 5 11 6
17 2 22 -14 49 -14 41 -1 -5 8 0 7 11 -2 22 -18 19 -18 36 -3 15 12 42 3 39
-13 -1 -5 4 -10 12 -12 11 -3 11 -2 0 6 -10 7 -10 11 2 21 17 14 31 -1 20 -21
-4 -7 4 -2 16 11 l23 24 8 -22 c5 -11 11 -21 13 -21 3 0 3 7 0 15 -4 8 -1 16
5 16 6 1 17 2 24 3 6 1 17 -2 24 -6 6 -5 14 -5 17 0 3 6 22 9 41 8 34 -1 47 8
23 16 -8 3 -6 7 5 11 9 3 19 1 23 -5 5 -7 2 -8 -7 -3 -8 5 -10 4 -6 0 12 -14
36 -14 31 -1 -5 12 8 16 53 16 13 0 22 5 20 11 -2 12 15 17 76 21 20 1 37 6
37 10 0 4 -5 8 -12 8 -6 0 -9 3 -6 6 5 4 42 11 95 16 7 1 10 5 7 10 -3 5 -10
6 -15 3 -5 -4 -9 -2 -9 3 0 5 17 9 37 10 20 1 41 7 47 13 8 9 8 10 -1 5 -7 -4
-13 -2 -13 3 0 6 7 12 15 12 8 1 20 3 25 4 6 1 16 3 23 4 9 1 9 3 -2 10 -18
12 0 22 40 23 l31 1 -23 14 c-13 8 -16 12 -7 9 10 -3 20 -1 24 5 3 6 13 8 21
5 11 -5 13 -2 9 10 -4 11 1 18 14 21 11 3 20 12 20 19 0 8 10 14 21 14 16 0
20 5 16 20 -3 11 -1 18 4 14 5 -3 17 0 26 5 10 6 14 11 9 11 -5 0 -3 7 4 15 7
8 17 12 23 8 6 -4 7 -1 3 6 -5 7 -15 10 -23 7 -8 -3 -11 -1 -8 4 4 6 14 9 23
8 12 -2 17 4 16 19 -1 13 3 20 7 17 5 -3 7 -9 4 -14 -3 -5 -2 -11 3 -14 7 -4
11 10 14 52 1 7 7 11 14 8 20 -8 25 6 6 21 -16 12 -16 13 1 7 10 -4 17 -3 16
2 -4 25 3 44 16 44 10 0 15 11 15 35 0 19 4 35 10 35 5 0 7 -7 4 -15 -4 -8 -2
-15 3 -15 5 0 10 6 11 13 2 21 10 91 11 105 0 7 6 10 11 7 8 -5 7 -12 -2 -23
-10 -15 -10 -15 2 -4 19 17 19 35 0 44 -12 5 -12 7 3 7 13 1 17 10 17 44 0 24
6 49 13 56 7 8 7 11 1 8 -14 -8 -16 41 -3 49 5 3 6 -1 3 -9 -3 -8 0 -18 7 -23
8 -4 10 -3 5 5 -4 6 -3 17 3 24 6 8 6 18 1 27 -5 9 -5 19 1 26 6 8 7 14 0 18
-5 4 -6 18 -2 34 4 15 7 73 6 130 0 56 2 102 5 102 3 0 11 9 18 21 8 12 9 18
3 14 -15 -8 -14 8 0 22 9 9 6 11 -12 7 -21 -5 -22 -4 -6 6 9 6 15 15 12 21 -4
5 -1 9 5 9 6 0 8 5 5 10 -11 18 -24 11 -20 -11 3 -12 1 -19 -2 -15 -9 9 -10
125 -1 120 3 -2 5 -15 3 -29 -1 -14 5 -30 14 -37 14 -11 14 -11 3 4 -7 9 -9
18 -3 20 5 2 3 18 -6 38 -14 31 -16 118 -17 702 -1 366 2 664 7 661 4 -2 5 -8
2 -13 -3 -5 -1 -11 5 -15 14 -8 13 11 -2 38 -6 12 -12 39 -13 59 -1 33 1 36
18 26 15 -8 18 -7 11 4 -12 19 -14 38 -3 38 6 0 7 5 4 10 -11 18 -24 11 -20
-11 3 -12 1 -19 -2 -15 -9 9 -10 125 -1 120 3 -2 5 -15 4 -28 -2 -16 1 -23 10
-19 12 5 6 35 -13 67 -4 6 -7 27 -8 48 -1 33 1 36 18 26 15 -8 18 -7 11 4 -12
19 -14 38 -3 38 6 0 7 5 4 10 -11 18 -24 11 -20 -11 3 -12 1 -19 -2 -15 -9 9
-10 125 -1 120 3 -2 5 -15 4 -28 -2 -16 1 -23 10 -19 12 5 6 35 -14 67 -14 23
0 82 17 72 4 -3 7 5 6 17 -1 12 -7 22 -12 22 -6 0 -15 4 -20 9 -5 5 -3 6 5 2
6 -4 12 -2 12 4 0 6 5 8 12 4 7 -4 8 -3 4 5 -4 6 -11 9 -16 6 -5 -3 -12 0 -16
6 -4 7 -3 9 2 6 6 -3 16 -2 24 4 13 7 12 9 -2 9 -10 0 -18 4 -18 10 0 5 6 7
13 5 9 -4 12 12 11 62 0 38 4 74 9 81 5 7 6 12 0 12 -16 0 -7 55 10 58 15 3
22 27 18 55 0 4 8 7 20 7 15 0 19 5 15 18 -5 13 0 18 16 19 12 1 28 10 37 19
15 17 15 17 -1 5 -10 -8 -18 -9 -18 -3 0 13 24 22 57 22 19 0 23 3 15 13 -8 9
1 13 41 16 29 2 66 5 82 6 17 1 29 7 27 14 -1 7 2 10 8 6 6 -3 8 -11 5 -16 -4
-5 -1 -9 4 -9 6 0 11 8 11 18 0 14 9 17 47 17 27 0 51 -4 55 -10 5 -6 8 -6 8
2 0 8 13 10 41 7 25 -3 38 -1 35 5 -4 5 -3 12 1 14 7 4 8 39 4 79 -1 4 -13 3
-27 -2 -18 -7 -23 -7 -18 2 5 8 0 9 -14 6 -12 -4 -22 -2 -22 3 0 6 -8 5 -20
-1 -15 -8 -20 -8 -20 2 0 8 -3 9 -8 3 -8 -12 -112 -14 -112 -2 0 5 -5 5 -12 1
-17 -11 -68 -12 -68 -2 0 5 -9 4 -20 -2 -15 -8 -20 -8 -20 2 0 8 -3 9 -8 3 -8
-12 -112 -14 -112 -2 0 5 -6 5 -12 0 -17 -10 -148 -10 -148 0 0 5 -5 5 -12 1
-17 -11 -68 -12 -68 -2 0 5 -9 4 -20 -2 -15 -8 -20 -8 -20 2 0 8 -3 9 -8 3 -8
-12 -112 -14 -112 -2 0 5 -5 5 -12 1 -17 -11 -68 -12 -68 -2 0 5 -9 4 -20 -2
-15 -8 -20 -8 -20 2 0 8 -3 9 -8 3 -8 -12 -112 -14 -112 -2 0 5 -5 5 -12 1
-16 -10 -219 -11 -225 -1 -2 4 -9 4 -16 0 -15 -9 -138 -10 -144 0 -2 4 -9 4
-16 0 -15 -9 -138 -10 -144 0 -2 4 -10 4 -16 0 -16 -10 -129 -10 -143 -1 -6 4
-14 5 -17 1z m1836 -78 c-3 -9 -8 -14 -10 -11 -3 3 -2 9 2 15 9 16 15 13 8 -4z
m-1810 -40 c-3 -9 -8 -14 -10 -11 -3 3 -2 9 2 15 9 16 15 13 8 -4z m35 -10
c-3 -3 -9 2 -12 12 -6 14 -5 15 5 6 7 -7 10 -15 7 -18z m1562 10 c0 -7 -30
-13 -34 -7 -3 4 4 9 15 9 10 1 19 0 19 -2z m-326 -500 c-4 -8 -11 -12 -16 -9
-6 4 -5 10 3 15 19 12 19 11 13 -6z m-1609 -2205 c3 -5 1 -10 -4 -10 -6 0 -11
5 -11 10 0 6 2 10 4 10 3 0 8 -4 11 -10z m-665 -234 c0 -3 -4 -8 -10 -11 -5
-3 -10 -1 -10 4 0 6 5 11 10 11 6 0 10 -2 10 -4z m34 -374 c3 -5 -1 -9 -9 -9
-8 0 -12 4 -9 9 3 4 7 8 9 8 2 0 6 -4 9 -8z m671 -282 c3 -6 -1 -7 -9 -4 -18
7 -21 14 -7 14 6 0 13 -4 16 -10z m-411 -59 c-5 -6 -34 20 -34 30 0 5 8 1 18
-8 10 -10 17 -20 16 -22z m651 -12 c3 -4 -10 -7 -29 -7 -20 0 -38 3 -40 7 -6
9 60 8 69 0z"/>
<path d="M1713 4350 c1 -11 5 -20 9 -20 3 0 6 9 5 20 -1 11 -5 20 -9 20 -3 0
-6 -9 -5 -20z"/>
<path d="M3774 4318 c-4 -7 -4 -10 1 -6 4 4 14 3 21 -3 9 -7 14 -6 20 3 4 7 4
10 -1 6 -4 -4 -14 -3 -21 3 -9 7 -14 6 -20 -3z"/>
<path d="M3471 4274 c0 -11 3 -14 6 -6 3 7 2 16 -1 19 -3 4 -6 -2 -5 -13z"/>
<path d="M2295 3989 c-4 -6 -5 -12 -2 -15 2 -3 7 2 10 11 7 17 1 20 -8 4z"/>
<path d="M3259 3788 c-5 -17 -4 -48 3 -48 4 0 8 11 8 25 0 20 -7 34 -11 23z"/>
<path d="M3255 3529 c0 -16 3 -29 7 -29 11 0 10 47 0 54 -4 2 -8 -9 -7 -25z"/>
<path d="M3255 3289 c0 -16 3 -29 7 -29 11 0 10 47 0 54 -4 2 -8 -9 -7 -25z"/>
<path d="M3255 3160 c0 -16 5 -32 12 -34 9 -4 10 1 3 19 -6 17 -6 25 1 25 6 0
7 5 4 10 -12 19 -21 10 -20 -20z"/>
<path d="M3254 3087 c0 -13 6 -24 13 -24 9 0 10 4 2 14 -9 9 -8 13 0 13 7 0 9
5 6 10 -11 17 -21 11 -21 -13z"/>
<path d="M3255 3000 c0 -16 5 -32 12 -34 9 -4 10 1 3 19 -6 17 -6 25 1 25 6 0
7 5 4 10 -12 19 -21 10 -20 -20z"/>
<path d="M3254 2927 c0 -13 6 -24 13 -24 9 0 10 4 2 14 -9 9 -8 13 0 13 7 0 9
5 6 10 -11 17 -21 11 -21 -13z"/>
<path d="M3255 2840 c0 -16 5 -32 12 -34 9 -4 10 1 3 19 -6 17 -6 25 1 25 6 0
7 5 4 10 -12 19 -21 10 -20 -20z"/>
<path d="M3254 2767 c0 -13 6 -24 13 -24 9 0 10 4 2 14 -9 9 -8 13 0 13 7 0 9
5 6 10 -11 17 -21 11 -21 -13z"/>
<path d="M3255 2680 c0 -16 5 -32 12 -34 9 -4 10 1 3 19 -6 17 -6 25 1 25 6 0
7 5 4 10 -12 19 -21 10 -20 -20z"/>
<path d="M3254 2607 c0 -13 6 -24 13 -24 9 0 10 4 2 14 -9 9 -8 13 0 13 7 0 9
5 6 10 -11 17 -21 11 -21 -13z"/>
<path d="M3255 2520 c0 -16 5 -32 12 -34 9 -4 10 1 3 19 -6 17 -6 25 1 25 6 0
7 5 4 10 -12 19 -21 10 -20 -20z"/>
<path d="M3254 2447 c0 -13 6 -24 13 -24 9 0 10 4 2 14 -9 9 -8 13 0 13 7 0 9
5 6 10 -11 17 -21 11 -21 -13z"/>
<path d="M3255 2360 c0 -16 5 -32 12 -34 9 -4 10 1 3 19 -6 17 -6 25 1 25 6 0
7 5 4 10 -12 19 -21 10 -20 -20z"/>
<path d="M3254 2287 c0 -13 6 -24 13 -24 9 0 10 4 2 14 -9 9 -8 13 0 13 7 0 9
5 6 10 -11 17 -21 11 -21 -13z"/>
<path d="M3255 2200 c0 -16 5 -32 12 -34 9 -4 10 1 3 19 -6 17 -6 25 1 25 6 0
7 5 4 10 -12 19 -21 10 -20 -20z"/>
<path d="M3254 2127 c0 -13 6 -24 13 -24 9 0 10 4 2 14 -9 9 -8 13 0 13 7 0 9
5 6 10 -11 17 -21 11 -21 -13z"/>
<path d="M3255 2040 c0 -16 5 -32 12 -34 9 -4 10 1 3 19 -6 17 -6 25 1 25 6 0
7 5 4 10 -12 19 -21 10 -20 -20z"/>
<path d="M3254 1967 c0 -13 6 -24 13 -24 9 0 10 4 2 14 -9 9 -8 13 0 13 7 0 9
5 6 10 -11 17 -21 11 -21 -13z"/>
<path d="M3253 1915 c0 -8 4 -15 9 -15 4 0 8 7 8 15 0 8 -4 15 -8 15 -5 0 -9
-7 -9 -15z"/>
<path d="M3259 1653 c-13 -16 -12 -17 4 -4 9 7 17 15 17 17 0 8 -8 3 -21 -13z"/>
<path d="M1793 1381 c0 -11 5 -18 9 -15 4 3 5 11 1 19 -7 21 -12 19 -10 -4z"/>
<path d="M2296 1387 c3 -10 9 -15 12 -12 3 3 0 11 -7 18 -10 9 -11 8 -5 -6z"/>
<path d="M1793 1310 c1 -11 5 -20 9 -20 3 0 6 9 5 20 -1 11 -5 20 -9 20 -3 0
-6 -9 -5 -20z"/>
<path d="M2295 1280 c-3 -5 -1 -10 4 -10 6 0 11 5 11 10 0 6 -2 10 -4 10 -3 0
-8 -4 -11 -10z"/>
<path d="M2290 1179 c0 -5 5 -7 10 -4 6 3 10 8 10 11 0 2 -4 4 -10 4 -5 0 -10
-5 -10 -11z"/>
<path d="M2293 1125 c0 -8 4 -15 9 -15 4 0 8 4 8 9 0 6 -4 12 -8 15 -5 3 -9
-1 -9 -9z"/>
<path d="M957 1114 c7 -3 9 -13 6 -22 -4 -14 -3 -14 5 -2 12 16 7 30 -11 29
-9 0 -9 -2 0 -5z"/>
<path d="M2250 880 c0 -5 5 -10 10 -10 6 0 10 5 10 10 0 6 -4 10 -10 10 -5 0
-10 -4 -10 -10z"/>
<path d="M1096 832 c-3 -5 1 -9 9 -9 8 0 12 4 9 9 -3 4 -7 8 -9 8 -2 0 -6 -4
-9 -8z"/>
<path d="M2506 488 c3 -4 9 -8 15 -8 5 0 9 4 9 8 0 5 -7 9 -15 9 -8 0 -12 -4
-9 -9z"/>
<path d="M1675 460 c-3 -5 -1 -10 4 -10 6 0 11 5 11 10 0 6 -2 10 -4 10 -3 0
-8 -4 -11 -10z"/>
<path d="M2117 433 c-10 -9 -9 -23 1 -23 5 0 9 7 9 15 0 17 -1 18 -10 8z"/>
</g>
</svg>
